# xmcd
#
# Track frame offsets:
# 150
# 17159
# 38555
# 57547
# 74055
# 95043
# 114147
# 138301
# 157922
# 179988
# 204250
# 224139
# 240014
# 252880
#
# Disc length: 3663 seconds
#
#
# Revision: 1
# Processed by: cddbd v1.5.1PL2 Copyright (c) Steve Scherf et al.
# Submitted via: FreeRIP 2.945 
#
DISCID=c90e4d0e
DTITLE=Keith Urban - Be Here
DYEAR=2004
DGENRE=Country
TTITLE0=Days Go By
TTITLE1=Better Life
TTITLE2=Making Memories Of Us
TTITLE3=God's Been Good To Me
TTITLE4=The Hard Way
TTITLE5=You're My Better Half
TTITLE6=I Could Fly
TTITLE7=Tonight I Wanna Cry
TTITLE8=She's Gotta Be
TTITLE9=Nobody Drinks Alone
TTITLE10=Country Comfort
TTITLE11=Live To Love Another Day
TTITLE12=These Are The Days
TTITLE13=You (Or Somebody Like You)
EXTD=
EXTT0=
EXTT1=
EXTT2=
EXTT3=
EXTT4=
EXTT5=
EXTT6=
EXTT7=
EXTT8=
EXTT9=
EXTT10=
EXTT11=
EXTT12=
EXTT13=
PLAYORDER=
